<?xml version="1.0" encoding="utf-8"?>
<!-- Generator: Adobe Illustrator 17.1.0, SVG Export Plug-In . SVG Version: 6.00 Build 0)  -->
<!DOCTYPE svg PUBLIC "-//W3C//DTD SVG 1.0//EN" "http://www.w3.org/TR/2001/REC-SVG-20010904/DTD/svg10.dtd">
<svg version="1.0" id="Layer_1" xmlns="http://www.w3.org/2000/svg" xmlns:xlink="http://www.w3.org/1999/xlink" x="0px" y="0px"
	 viewBox="0 0 66.2 66.2" enable-background="new 0 0 66.2 66.2" xml:space="preserve">
<polygon fill="#8D7D74" points="33.1,0 33.1,4.4 61.8,4.4 61.8,33.1 66.2,33.1 66.2,0 "/>
<polygon fill="#E2DEDC" points="0,0 0,33.1 4.4,33.1 4.4,4.4 33.1,4.4 33.1,0 "/>
<polygon fill="#C6BEB9" points="0,33.1 0,66.2 33.1,66.2 33.1,61.8 4.4,61.8 4.4,33.1 "/>
<polygon fill="#AA9E97" points="61.8,33.1 61.8,61.8 33.1,61.8 33.1,66.2 66.2,66.2 66.2,33.1 "/>
<g>
	<defs>
		<rect id="SVGID_1_" y="0" width="66.2" height="66.2"/>
	</defs>
	<clipPath id="SVGID_2_">
		<use xlink:href="#SVGID_1_"  overflow="visible"/>
	</clipPath>
	<path clip-path="url(#SVGID_2_)" fill="#673B15" d="M33.1,37.4c1.2,0,2.2-0.4,3-1.3c0.8-0.8,1.3-1.9,1.3-3.1c0-1.2-0.4-2.2-1.3-3
		c-0.8-0.8-1.8-1.3-3-1.3c-1.2,0-2.2,0.4-3.1,1.3c-0.8,0.8-1.3,1.8-1.3,3c0,1.2,0.4,2.2,1.3,3.1C30.9,37,31.9,37.4,33.1,37.4"/>
</g>
</svg>
