<?xml version="1.0" encoding="utf-8"?>
<!-- Generator: Adobe Illustrator 16.0.0, SVG Export Plug-In . SVG Version: 6.00 Build 0)  -->
<!DOCTYPE svg PUBLIC "-//W3C//DTD SVG 1.1//EN" "http://www.w3.org/Graphics/SVG/1.1/DTD/svg11.dtd" [
	<!ENTITY ns_extend "http://ns.adobe.com/Extensibility/1.0/">
	<!ENTITY ns_ai "http://ns.adobe.com/AdobeIllustrator/10.0/">
	<!ENTITY ns_graphs "http://ns.adobe.com/Graphs/1.0/">
	<!ENTITY ns_vars "http://ns.adobe.com/Variables/1.0/">
	<!ENTITY ns_imrep "http://ns.adobe.com/ImageReplacement/1.0/">
	<!ENTITY ns_sfw "http://ns.adobe.com/SaveForWeb/1.0/">
	<!ENTITY ns_custom "http://ns.adobe.com/GenericCustomNamespace/1.0/">
	<!ENTITY ns_adobe_xpath "http://ns.adobe.com/XPath/1.0/">
]>
<svg version="1.1" id="Calque_1" xmlns:x="&ns_extend;" xmlns:i="&ns_ai;" xmlns:graph="&ns_graphs;"
	 xmlns="http://www.w3.org/2000/svg" xmlns:xlink="http://www.w3.org/1999/xlink" x="0px" y="0px" width="289.133px"
	 height="34.016px" viewBox="0 0 289.133 34.016" enable-background="new 0 0 289.133 34.016" xml:space="preserve">
<metadata>
	<sfw  xmlns="&ns_sfw;">
		<slices></slices>
		<sliceSourceBounds  width="283.637" height="31.335" y="404.833" x="155.683" bottomLeftOrigin="true"></sliceSourceBounds>
		<optimizationSettings>
			<targetSettings  fileFormat="PNG24Format" targetSettingsID="0">
				<PNG24Format  transparency="true" filtered="false" noMatteColor="false" matteColor="#FFFFFF" interlaced="false">
					</PNG24Format>
			</targetSettings>
		</optimizationSettings>
	</sfw>
</metadata>
<g>
	<path opacity="0.77" fill="#FFFFFF" enable-background="new    " d="M28.464,18.916c0.193-0.572,0.499-1.38,0.499-1.993
		c0-1.568-1.11-1.838-2.415-1.954v-1.146h7.971v1.146c-2.414,0.463-3.372,2.188-4.291,4.294l-5.557,13.105h-2.222l-5.824-14.333
		c-0.803-1.954-1.265-2.873-3.448-3.066v-1.146h9.311v1.146h-0.651c-0.803,0.077-1.8,0.271-1.8,1.305
		c0,0.534,0.305,1.266,0.459,1.765l4.176,11.038L28.464,18.916z"/>
	<path opacity="0.77" fill="#FFFFFF" enable-background="new    " d="M55.851,27.538c0,2.146,0.229,3.87,2.567,3.721l0.575-0.039
		v1.148h-6.821v-3.183c-2.185,2.104-4.941,3.484-8.239,3.484c-1.609,0-3.486-0.421-4.596-1.646c-1.151-1.266-1.19-2.719-1.19-4.332
		v-7.166c0-2.142-0.381-3.562-2.796-3.715h-0.613v-1.146l5.863-0.847h1.225v12.382c0,0.958-0.038,2.369,0.42,3.177
		c0.577,0.999,1.842,1.419,2.915,1.419c2.72,0,5.249-1.529,7.012-3.257v-8.013c0-2.142-0.385-3.562-2.797-3.715h-0.612v-1.146
		l5.862-0.847h1.226L55.851,27.538L55.851,27.538z"/>
	<path opacity="0.77" fill="#FFFFFF" enable-background="new    " d="M74.765,19.722c0-2.837-1.802-4.714-4.406-4.714
		c-2.721,0-4.522,2.263-4.79,4.714H74.765z M65.491,21.294l-0.077,1.954c0,1.763,0.65,3.831,1.647,5.32
		c1.073,1.575,2.989,2.381,4.866,2.381c2.608,0,4.408-1.269,5.633-3.526l1.265,0.653c-1.377,3.025-4.558,4.597-7.816,4.597
		c-2.564,0-4.828-0.688-6.705-2.488c-1.877-1.877-2.876-4.562-2.876-7.167c0-5.554,3.489-9.54,9.161-9.578
		c4.596-0.039,8.314,3.066,8.236,7.854H65.491z"/>
	<path opacity="0.77" fill="#FFFFFF" enable-background="new    " d="M109.461,19.683h-1.227c-0.996-2.604-3.908-4.676-6.707-4.676
		c-1.722,0-3.946,0.729-3.946,2.76c0,1.877,2.186,2.262,3.603,2.608l4.33,1.035c2.837,0.688,5.327,1.723,5.327,5.096
		c0,4.289-4.292,6.166-8.008,6.166c-2.261,0-4.33-0.572-6.131-1.915l-0.424,1.611h-1.226l-1.341-6.822h1.341
		c1.074,3.449,4.215,5.52,7.78,5.52c1.954,0,4.789-0.996,4.789-3.374c0-1.878-1.725-2.301-3.219-2.682l-3.908-1.035
		c-2.837-0.726-6.21-1.531-6.21-5.136c0-3.562,3.985-5.399,7.053-5.399c1.877,0,3.907,0.532,5.403,1.726l0.42-1.345h1.073
		L109.461,19.683z"/>
	<path opacity="0.77" fill="#FFFFFF" enable-background="new    " d="M133.974,27.538c0,2.146,0.229,3.87,2.565,3.721l0.576-0.039
		v1.148h-6.82v-3.183c-2.184,2.104-4.943,3.484-8.239,3.484c-1.608,0-3.485-0.421-4.599-1.646c-1.148-1.266-1.188-2.719-1.188-4.332
		v-7.166c0-2.142-0.383-3.562-2.798-3.715h-0.613v-1.146l5.863-0.847h1.226v12.382c0,0.958-0.038,2.369,0.423,3.177
		c0.574,0.999,1.84,1.419,2.912,1.419c2.721,0,5.249-1.529,7.013-3.257v-8.013c0-2.142-0.384-3.562-2.799-3.715h-0.612v-1.146
		l5.862-0.847h1.228V27.538z"/>
	<path opacity="0.77" fill="#FFFFFF" enable-background="new    " d="M145.988,27.5c0.076,2.183,0.384,3.562,2.834,3.681
		l0.654,0.039v1.148h-10.54V31.22h0.422c2.529-0.154,2.949-1.344,2.949-3.72v-7.975c0-2.143-0.382-3.562-2.796-3.716H138.9v-1.146
		l5.862-0.847h1.226v2.875c1.687-1.728,3.869-3.258,6.438-3.258c1.265,0,2.835,0.495,2.835,2.032c0,1.226-0.919,2.065-2.105,2.065
		c-1.803,0-2.225-1.266-3.411-1.266c-1.304,0-2.912,1.189-3.755,2.109L145.988,27.5L145.988,27.5z"/>
	<path opacity="0.77" fill="#FFFFFF" enable-background="new    " d="M175.092,27.5c0,2.064,0.309,3.523,2.645,3.681l0.459,0.039
		v1.148h-10.041V31.22h0.35c2.49-0.193,2.912-1.421,2.912-3.72V12.134c0-2.526,0.271-4.558-2.873-4.789l-0.535-0.038V6.158
		c1.877-0.231,3.758-0.538,5.557-1.268h1.529L175.092,27.5L175.092,27.5z"/>
	<path opacity="0.77" fill="#FFFFFF" enable-background="new    " d="M193.135,22.824c-2.912,0.271-9.197,1.07-9.197,4.863
		c0,1.954,1.646,3.105,3.49,3.105c2.064,0,4.135-1.229,5.707-2.565V22.824z M201.219,31.369c-0.957,0.922-2.645,1.342-3.908,1.304
		c-1.877-0.039-3.604-0.881-4.176-2.758c-2.262,1.761-4.332,2.758-7.205,2.758c-2.682,0-5.863-1.453-5.863-4.521
		c0-2.604,1.609-3.832,3.793-4.786c2.031-0.925,4.258-1.347,6.441-1.574l2.834-0.311v-2.755c-0.076-1.189-0.271-2.184-1.344-2.914
		c-0.996-0.649-2.299-0.806-3.445-0.806c-1.189,0-3.68,0.574-3.68,2.031v0.496c0,1.266-0.498,2.301-1.953,2.301
		c-0.922,0-1.805-0.729-1.805-1.688c0-1.604,1.766-3.023,3.104-3.6c1.608-0.694,3.678-1.073,5.401-1.112
		c1.61-0.038,3.719,0.495,5.135,1.268c2.068,1.107,2.263,2.564,2.263,4.715v7.508c0,1.61,0.229,4.023,2.106,4.023
		c0.571,0,1.112-0.271,1.567-0.573L201.219,31.369z"/>
	<path opacity="0.77" fill="#FFFFFF" enable-background="new    " d="M227.598,18.916c0.193-0.572,0.5-1.38,0.5-1.993
		c0-1.568-1.111-1.838-2.416-1.954v-1.146h7.973v1.146c-2.416,0.463-3.369,2.188-4.293,4.294l-5.557,13.105h-2.223l-5.824-14.333
		c-0.805-1.954-1.262-2.873-3.447-3.066v-1.146h9.312v1.146h-0.65c-0.805,0.077-1.801,0.271-1.801,1.305
		c0,0.534,0.307,1.266,0.459,1.765l4.178,11.038L227.598,18.916z"/>
	<path opacity="0.77" fill="#FFFFFF" enable-background="new    " d="M239.12,11.902c-1.341,0-2.259-1.065-2.259-2.368
		c0-1.19,1.111-2.228,2.298-2.228c1.342,0,2.299,1.073,2.299,2.374C241.458,10.944,240.346,11.902,239.12,11.902 M240.963,27.5
		c0,2.104,0.342,3.523,2.719,3.72h0.461v1.148h-10.117V31.22h0.348c2.525-0.154,2.908-1.382,2.908-3.72v-7.975
		c0-2.143-0.383-3.562-2.799-3.716h-0.607v-1.146l5.859-0.847h1.229L240.963,27.5L240.963,27.5z"/>
	<path opacity="0.77" fill="#FFFFFF" enable-background="new    " d="M252.45,27.5c0,2.064,0.309,3.523,2.643,3.681l0.464,0.039
		v1.148h-10.041V31.22h0.348c2.486-0.193,2.912-1.421,2.912-3.72V12.134c0-2.526,0.269-4.558-2.873-4.789l-0.541-0.038V6.158
		c1.877-0.231,3.759-0.538,5.56-1.268h1.531L252.45,27.5L252.45,27.5z"/>
	<path opacity="0.77" fill="#FFFFFF" enable-background="new    " d="M263.938,27.5c0,2.064,0.311,3.523,2.645,3.681l0.461,0.039
		v1.148H257V31.22h0.348c2.492-0.193,2.912-1.421,2.912-3.72V12.134c0-2.526,0.27-4.558-2.873-4.789l-0.537-0.038V6.158
		c1.877-0.231,3.758-0.538,5.559-1.268h1.529V27.5L263.938,27.5z"/>
	<path opacity="0.77" fill="#FFFFFF" enable-background="new    " d="M282.327,19.722c0-2.837-1.806-4.714-4.408-4.714
		c-2.719,0-4.522,2.263-4.789,4.714H282.327z M273.053,21.294l-0.078,1.954c0,1.763,0.65,3.831,1.646,5.32
		c1.07,1.575,2.986,2.381,4.863,2.381c2.611,0,4.41-1.269,5.637-3.526l1.264,0.653c-1.375,3.025-4.557,4.597-7.818,4.597
		c-2.562,0-4.824-0.688-6.703-2.488c-1.877-1.877-2.871-4.562-2.871-7.167c0-5.554,3.486-9.54,9.158-9.578
		c4.598-0.039,8.312,3.066,8.234,7.854H273.053z"/>
	<path fill="#FFFFFF" d="M7.221,5.087c0,0.707,0.704,1.352,1.187,1.791c0.626-0.362,1.611-1.026,1.611-1.83
		c0-0.827-0.646-1.29-1.41-1.29C7.824,3.758,7.221,4.281,7.221,5.087 M7.643,9.882c-0.784,0.479-1.631,0.967-1.631,2.034
		c0,1.047,0.926,1.748,1.913,1.748c0.927,0,1.571-0.463,2.235-1.043L7.643,9.882z M13.885,12.597l3.184,3.366h-3.887l-1.189-1.353
		c-1.168,1.212-2.496,1.715-4.188,1.715c-2.576,0-5.056-1.412-5.056-4.271c0-1.832,1.329-3.323,3.021-3.889
		C4.845,7.16,4.2,6.373,4.2,4.966c0-2.578,2.175-3.626,4.45-3.626c2.197,0,4.148,1.11,4.148,3.506c0,1.688-1.207,2.961-2.638,3.702
		l1.832,1.955l1.391-1.896h3.504L13.885,12.597z"/>
</g>
</svg>
