<?xml version="1.0" encoding="utf-8"?>
<!-- Generator: Adobe Illustrator 17.1.0, SVG Export Plug-In . SVG Version: 6.00 Build 0)  -->
<!DOCTYPE svg PUBLIC "-//W3C//DTD SVG 1.1//EN" "http://www.w3.org/Graphics/SVG/1.1/DTD/svg11.dtd">
<svg version="1.1" id="Calque_1" xmlns="http://www.w3.org/2000/svg" xmlns:xlink="http://www.w3.org/1999/xlink" x="0px" y="0px"
	 viewBox="0 0 23.2 24" enable-background="new 0 0 23.2 24" xml:space="preserve">
<g>
	<path fill="#FFFFFF" d="M17.9,0.5c-0.2,0-0.4,0.1-0.5,0.3c-0.1,0.2-0.2,0.3-0.3,0.6c0,0.2,0.1,0.4,0.3,0.6c0.9,0.8,1.6,1.8,2.2,2.9
		c0.6,1.1,1,2.3,1.3,3.6c0.3,1.3,0.4,2.5,0.4,3.9c0,1.3-0.2,2.6-0.4,3.8c-0.3,1.2-0.7,2.3-1.3,3.4c-0.6,1-1.3,1.9-2.2,2.6
		c-0.2,0.2-0.3,0.4-0.3,0.6c0,0.2,0.1,0.4,0.2,0.6c0.1,0.2,0.3,0.3,0.5,0.3c0.2,0.1,0.4,0,0.6-0.2c1-0.9,1.9-1.9,2.6-3.1
		c0.7-1.2,1.2-2.4,1.5-3.8c0.3-1.4,0.5-2.8,0.5-4.2c0-1.4-0.2-2.9-0.5-4.3c-0.3-1.4-0.8-2.7-1.5-4c-0.7-1.3-1.5-2.4-2.5-3.3
		C18.4,0.5,18.2,0.4,17.9,0.5"/>
	<path fill="#FFFFFF" d="M15.1,3c-0.2,0-0.4,0.1-0.5,0.3c-0.1,0.2-0.2,0.3-0.3,0.6c0,0.2,0.1,0.4,0.3,0.6c0.7,0.6,1.2,1.3,1.6,2.2
		c0.4,0.8,0.8,1.7,1,2.7c0.2,0.9,0.3,1.9,0.3,2.9c0,1-0.1,1.9-0.3,2.9c-0.2,0.9-0.5,1.8-1,2.5c-0.4,0.8-1,1.4-1.6,1.9
		c-0.2,0.2-0.3,0.4-0.3,0.6c0,0.2,0.1,0.4,0.2,0.6c0.1,0.2,0.3,0.3,0.5,0.3c0.2,0,0.4,0,0.6-0.2c0.8-0.7,1.5-1.5,2-2.4
		c0.5-0.9,0.9-1.9,1.2-3c0.3-1,0.4-2.1,0.4-3.3c0-1.1-0.1-2.2-0.4-3.3c-0.3-1.1-0.6-2.1-1.2-3.1c-0.5-1-1.2-1.8-1.9-2.6
		C15.5,3,15.3,2.9,15.1,3"/>
	<polygon fill="#FFFFFF" points="8.3,20.1 8.3,3.8 2.9,9.1 0,9.1 0,14.8 2.9,14.8 	"/>
	<path fill="#FFFFFF" d="M12.2,5.6c-0.2,0-0.4,0.1-0.5,0.3c-0.1,0.2-0.2,0.4-0.2,0.6c0,0.2,0.1,0.4,0.3,0.6c0.4,0.3,0.7,0.8,1,1.3
		c0.3,0.5,0.5,1.1,0.6,1.7c0.1,0.6,0.2,1.3,0.2,1.9c0,0.7-0.1,1.3-0.2,1.9c-0.1,0.6-0.3,1.2-0.6,1.7c-0.3,0.5-0.6,0.9-1,1.2
		c-0.2,0.2-0.3,0.4-0.3,0.6s0.1,0.4,0.2,0.6c0.1,0.2,0.3,0.3,0.5,0.3c0.2,0.1,0.4,0,0.6-0.2c0.6-0.5,1-1,1.4-1.7
		c0.4-0.7,0.6-1.3,0.8-2.1c0.2-0.7,0.3-1.5,0.3-2.3c0-0.8-0.1-1.6-0.3-2.3c-0.2-0.8-0.4-1.5-0.8-2.1c-0.4-0.7-0.8-1.3-1.3-1.8
		C12.6,5.6,12.4,5.6,12.2,5.6"/>
</g>
</svg>
